<svg width="809" height="104" viewBox="0 0 809 104" fill="none" xmlns="http://www.w3.org/2000/svg">
<path d="M72.5312 101H0.53125V0.171875H27.8828V76.5312H72.5312V101Z" fill="#27262D"/>
<path d="M118.547 77.9375H170.367V101H91.195V0.171875H168.961V23.2344H118.547V39.0547H157.429V60.7109H118.547V77.9375Z" fill="#27262D"/>
<path d="M243.101 57.8281L233.749 28.2969L224.398 57.8281H243.101ZM250.273 79.4141H217.156L209.984 101H180.452L218.632 0.171875H248.867L287.046 101H257.515L250.273 79.4141Z" fill="#27262D"/>
<path d="M302.897 0.171875H341.78C357.155 0.171875 369.882 5.02344 379.96 14.7266C390.038 24.4297 395.077 36.3828 395.077 50.5859C395.077 64.7891 390.015 76.7422 379.89 86.4453C369.812 96.1484 357.108 101 341.78 101H302.897V0.171875ZM341.78 24.7109H330.249V76.5312H341.78C348.812 76.5312 354.882 74.0703 359.991 69.1484C365.101 64.1797 367.655 57.9922 367.655 50.5859C367.655 42.9922 365.241 36.7812 360.413 31.9531C355.585 27.125 349.374 24.7109 341.78 24.7109Z" fill="#27262D"/>
<path d="M416.624 101V0.171875H464.155C474.796 0.171875 483.561 3.5 490.452 10.1562C497.389 16.7656 500.858 24.9688 500.858 34.7656C500.858 38.7969 500.249 42.5703 499.03 46.0859C497.858 49.5547 496.428 52.3906 494.741 54.5938C493.053 56.75 491.366 58.6016 489.678 60.1484C487.991 61.6484 486.585 62.6797 485.46 63.2422L483.561 64.2969L504.444 101H475.686L458.389 69.2891H443.975V101H416.624ZM470.483 41.9375C472.499 40.0156 473.507 37.625 473.507 34.7656C473.507 31.8594 472.499 29.4688 470.483 27.5938C468.467 25.6719 465.866 24.7109 462.678 24.7109H443.975V44.8203H462.678C465.866 44.8203 468.467 43.8594 470.483 41.9375Z" fill="#27262D"/>
<path d="M524.584 101V0.171875H551.936V101H524.584Z" fill="#27262D"/>
<path d="M611.381 73.5781C615.084 77.4688 619.49 79.4141 624.6 79.4141C629.709 79.4141 634.092 77.4688 637.748 73.5781C641.451 69.6875 643.303 64.9062 643.303 59.2344V0.171875H670.654V59.2344C670.654 71.8906 666.295 82.5078 657.576 91.0859C648.857 99.6172 637.865 103.883 624.6 103.883C611.334 103.883 600.342 99.6172 591.623 91.0859C582.904 82.5078 578.545 71.8906 578.545 59.2344V0.171875H605.897V59.2344C605.897 64.9062 607.725 69.6875 611.381 73.5781Z" fill="#27262D"/>
<path d="M752.74 76.5312L724.685 41.2344V101H697.334V0.171875H721.802L752.74 39.8281L783.748 0.171875H808.217V101H780.865V41.2344L752.74 76.5312Z" fill="#27262D"/>
</svg>
