<svg width="31" height="28" viewBox="0 0 31 28" fill="none" xmlns="http://www.w3.org/2000/svg">
<path d="M30.2585 13.9386C30.2585 6.24052 23.9825 0 16.2406 0C8.4987 0 2.22266 6.24052 2.22266 13.9386V14.0614C2.22266 21.7595 8.4987 28 16.2406 28C23.9825 28 30.2585 21.7595 30.2585 14.0614V13.9386Z" fill="black"/>
<path d="M10.5426 23.3954L9.33835 22.9828C8.48903 22.6918 7.74834 22.1517 7.21394 21.4337L5.68093 19.3741C3.40412 16.3151 5.84115 12.019 9.65173 12.3742C11.2448 12.5227 12.6333 13.5146 13.2832 14.9685L14.9257 18.6434C15.1266 19.093 15.2305 19.5794 15.2305 20.0714C15.2305 22.4861 12.8385 24.1822 10.5426 23.3954Z" fill="#E4A502" stroke="white" stroke-width="4"/>
<path d="M21.9718 24.2855C19.9095 25.5595 17.5255 26.224 15.098 26.2013C12.6705 26.1787 10.2996 25.47 8.26161 24.1578C6.22362 22.8455 4.60264 20.9838 3.58771 18.79C2.57277 16.5961 2.2057 14.1603 2.52931 11.7668C2.85292 9.37324 3.85388 7.12054 5.41544 5.27142C6.97701 3.42229 9.03482 2.05295 11.3489 1.3231C13.663 0.593238 16.138 0.532938 18.4852 1.14923C20.8323 1.76553 22.9551 3.033 24.6058 4.80387C23.1701 4.90046 21.7754 5.32015 20.5266 6.03128L20.4846 6.05619C20.0851 6.28562 19.703 6.54402 19.3415 6.82928C19.2207 6.92306 19.1036 7.02052 18.9887 7.12238C18.5245 7.52482 18.1005 7.97095 17.7225 8.45458C17.6754 8.51467 17.629 8.57549 17.5833 8.63631C16.5976 9.41309 15.4672 9.9879 14.257 10.3276C14.211 9.56888 13.8926 8.85187 13.3598 8.30715C12.827 7.76243 12.1152 7.42623 11.3542 7.3598C11.2621 7.35175 11.1686 7.34735 11.075 7.34735C10.5662 7.34688 10.0648 7.46765 9.61253 7.69955C9.1603 7.93146 8.77048 8.26774 8.47568 8.68027C8.37476 8.70582 8.27521 8.73639 8.17738 8.77187C7.74733 8.92763 7.35596 9.17354 7.0298 9.49292C6.96105 9.55985 6.89624 9.62947 6.83535 9.70177C7.11933 9.72699 7.39856 9.79034 7.66546 9.89009C7.75458 9.92307 7.84223 9.96337 7.92767 10.0015C8.14004 10.1032 8.34039 10.228 8.52503 10.3737C8.15902 11.0706 7.9036 11.8195 7.76784 12.594C7.70182 12.9698 7.66415 13.3499 7.65514 13.7313C7.65514 13.7907 7.65514 13.8507 7.65514 13.9109V13.924C7.65514 14.1189 7.66325 14.3125 7.67724 14.5044C7.76646 15.671 8.1219 16.8019 8.71653 17.8112C9.31116 18.8206 10.1293 19.6818 11.1088 20.3293C12.0883 20.9767 13.2032 21.3934 14.369 21.5478C15.5346 21.702 16.7204 21.5898 17.8359 21.2196L17.9266 21.1888C18.4322 21.4885 18.9018 21.8447 19.326 22.2506C19.4144 22.3356 19.5013 22.4222 19.5845 22.5108C19.7785 22.7137 19.9611 22.9273 20.1312 23.1505C20.3343 23.4166 20.5198 23.6957 20.6864 23.9859C20.9173 23.9114 21.1344 23.8003 21.3295 23.6569C21.5555 23.854 21.7701 24.0638 21.9718 24.2855Z" fill="url(#paint0_angular)"/>
<path d="M21.8794 24.1271C19.8995 25.3521 17.6172 26.0074 15.2857 26.0205C12.9542 26.0337 10.6646 25.4042 8.67081 24.2016C6.67704 22.9991 5.05702 21.2707 3.99045 19.2081C2.92388 17.1454 2.45242 14.8291 2.62837 12.5162C2.80432 10.2033 3.62081 7.98403 4.98726 6.10457C6.35373 4.22514 8.21676 2.75896 10.3697 1.86868C12.5227 0.97839 14.8814 0.698788 17.1844 1.06088C19.4875 1.42296 21.6446 2.41259 23.4167 3.92001C23.7888 4.23756 24.1424 4.57592 24.4759 4.93344L24.6062 4.62055C22.1885 4.78241 19.9187 5.83661 18.2415 7.57658C18.1031 7.71947 17.9691 7.86969 17.8401 8.01625C17.7805 8.08953 17.7216 8.15767 17.6641 8.22949C17.5884 8.30634 17.5219 8.39167 17.4659 8.48376C17.4483 8.52627 17.4741 8.4889 17.4895 8.47351C17.4723 8.48887 17.4541 8.50307 17.435 8.516C17.3953 8.54605 17.3562 8.57683 17.3157 8.60687C17.242 8.66403 17.1632 8.71971 17.0859 8.77468C16.9246 8.88825 16.7603 8.99451 16.5916 9.10076C15.8496 9.55782 15.047 9.90976 14.2073 10.1464L14.4401 10.323C14.4 9.62786 14.1434 8.96233 13.7059 8.41873C13.2686 7.87511 12.6719 7.48036 11.9989 7.2892C11.3259 7.09802 10.6097 7.11991 9.94973 7.3518C9.28977 7.5837 8.71865 8.01414 8.31559 8.58342L8.42608 8.49915C7.75538 8.67378 7.15446 9.04839 6.70399 9.57267C6.67952 9.59879 6.66313 9.63137 6.65674 9.66649C6.65037 9.70163 6.6543 9.73784 6.66803 9.77083C6.68178 9.80382 6.70476 9.83216 6.73426 9.85251C6.76375 9.87285 6.79849 9.88433 6.83436 9.88557C7.4026 9.9403 7.94344 10.1548 8.39367 10.504L8.36494 10.2842C7.63281 11.6819 7.33918 13.2661 7.52203 14.8316C7.70488 16.3973 8.3558 17.8722 9.39056 19.0656C10.4253 20.2591 11.7962 21.1161 13.3261 21.5259C14.8559 21.9356 16.474 21.8791 17.9712 21.3638L17.8298 21.3455C18.9479 22.0122 19.8759 22.9525 20.5257 24.0766C20.5463 24.1113 20.5778 24.1383 20.6152 24.1535C20.6527 24.1687 20.6942 24.1713 20.7334 24.1609C20.9788 24.0803 21.2105 23.9633 21.4206 23.8136L21.1996 23.785C21.4261 23.9828 21.6413 24.1932 21.8441 24.4151C22.0046 24.5896 22.2639 24.3301 22.1048 24.1557C21.9015 23.9344 21.6864 23.7241 21.4603 23.5256C21.4314 23.498 21.3944 23.4803 21.3546 23.4751C21.3149 23.47 21.2745 23.4777 21.2394 23.497C21.057 23.6306 20.855 23.7354 20.6405 23.8077L20.8482 23.8919C20.2744 22.8955 19.4883 22.0361 18.545 21.3741C18.3976 21.269 18.2462 21.1697 18.0906 21.0758C18.054 21.0461 18.0107 21.026 17.9644 21.0173C17.9181 21.0085 17.8703 21.0116 17.8254 21.026C17.7216 21.0561 17.6199 21.0934 17.5168 21.1242C16.0971 21.5421 14.5851 21.5354 13.1693 21.1047C11.7534 20.6741 10.4961 19.8387 9.5539 18.7024C8.61175 17.5661 8.02635 16.1793 7.8706 14.7144C7.71486 13.2497 7.99564 11.7717 8.67798 10.4645C8.69741 10.4296 8.70509 10.3894 8.69993 10.3499C8.69475 10.3103 8.67701 10.2734 8.64925 10.2446C8.12551 9.83338 7.49348 9.58145 6.82921 9.51919L6.95957 9.83207C7.17615 9.577 7.43346 9.35913 7.72118 9.18723C7.85491 9.10722 7.99481 9.03787 8.13956 8.97986C8.20731 8.95274 8.27655 8.92856 8.34653 8.90658C8.4305 8.8802 8.53215 8.87067 8.5999 8.81058C8.65303 8.75027 8.70224 8.68663 8.74722 8.62006C8.78994 8.56877 8.83487 8.51894 8.88053 8.46984C8.98966 8.35492 9.10735 8.24835 9.23262 8.15108C9.46699 7.97126 9.72688 7.82705 10.0038 7.72313C10.4435 7.55803 10.9159 7.49776 11.3832 7.54714C11.8505 7.59652 12.2997 7.75418 12.6946 8.00748C13.0896 8.26077 13.4194 8.60264 13.6575 9.00567C13.8957 9.4087 14.0355 9.86163 14.0659 10.3282C14.0664 10.3562 14.0732 10.3838 14.0859 10.4088C14.0986 10.4338 14.1169 10.4556 14.1393 10.4726C14.1616 10.4896 14.1877 10.5014 14.2152 10.5069C14.2429 10.5125 14.2714 10.5117 14.2987 10.5048C15.0419 10.2963 15.7576 10.0012 16.4311 9.62544C16.7624 9.43928 17.0821 9.23348 17.3886 9.00917C17.5393 8.91284 17.6749 8.7948 17.7907 8.6589C17.9065 8.50648 18.028 8.35845 18.1531 8.2141C18.9589 7.27813 19.9437 6.51102 21.0503 5.95748C22.1569 5.40392 23.3632 5.075 24.5989 4.98987C24.6348 4.98893 24.6698 4.97764 24.6995 4.95735C24.7292 4.93705 24.7524 4.90863 24.7661 4.87552C24.7799 4.84242 24.7838 4.80605 24.7772 4.7708C24.7707 4.73557 24.754 4.70298 24.7292 4.67697C23.3137 3.15653 21.5506 1.99786 19.5895 1.29911C17.6282 0.600355 15.5266 0.38209 13.4627 0.662799C11.6613 0.905333 9.93152 1.52307 8.3863 2.4757C6.87636 3.41034 5.57325 4.64069 4.55615 6.09196C3.52545 7.56321 2.81588 9.23291 2.47315 10.9935C2.11863 12.8259 2.16258 14.7126 2.60206 16.5267C3.0273 18.2625 3.81119 19.8911 4.90382 21.3089C6.69251 23.6361 9.22285 25.2897 12.0801 25.9987C14.9373 26.7076 17.9518 26.4299 20.6295 25.2109C21.1238 24.9855 21.6032 24.7292 22.065 24.4437C22.2661 24.3199 22.0805 24.0026 21.8794 24.1271Z" fill="white"/>
<path d="M28.0211 13.4644C28.0233 15.1776 27.6769 16.8737 27.0029 18.4502C26.3288 20.0268 25.341 21.4514 24.0989 22.638C24.0436 22.5355 23.9877 22.4344 23.9295 22.3332C22.8341 20.4131 21.3695 18.7265 19.6191 17.3694C21.435 16.9575 23.1194 16.102 24.5199 14.8804C25.9204 13.6588 26.9931 12.1094 27.641 10.3721C27.8942 11.3835 28.0219 12.4221 28.0211 13.4644Z" fill="url(#paint1_linear)"/>
<path d="M27.8366 13.4648C27.8388 15.1539 27.4973 16.826 26.8326 18.3803C26.1679 19.9347 25.1937 21.339 23.9689 22.5088L24.2576 22.5462C23.3861 20.9396 22.2585 19.4843 20.9188 18.2367C20.5437 17.8869 20.1535 17.5547 19.7484 17.24L19.6674 17.5464C21.1423 17.2124 22.5352 16.5883 23.7641 15.7108C25.6172 14.3907 27.0297 12.5479 27.8189 10.4208H27.4632C27.7114 11.4167 27.8367 12.4389 27.8366 13.4648C27.8366 13.7007 28.2049 13.7007 28.2049 13.4648C28.2042 12.4062 28.0745 11.3517 27.8189 10.3241C27.7718 10.1358 27.5244 10.1644 27.4632 10.3241C26.8258 12.0322 25.7701 13.555 24.3918 14.7547C23.0133 15.9542 21.3559 16.7926 19.5694 17.194C19.4442 17.2225 19.3787 17.4138 19.4883 17.5003C20.9095 18.6026 22.144 19.9245 23.1447 21.4155C23.4298 21.842 23.6964 22.2809 23.9402 22.7344C23.9546 22.7584 23.9742 22.7788 23.9977 22.794C24.0211 22.8093 24.0477 22.819 24.0755 22.8227C24.1033 22.8263 24.1314 22.8236 24.1581 22.8147C24.1847 22.806 24.2089 22.7913 24.2289 22.7719C25.1904 21.8502 26.0044 20.7876 26.6427 19.6209C27.2875 18.438 27.7411 17.1616 27.9869 15.8383C28.1323 15.0576 28.2061 14.2654 28.2079 13.4715C28.2056 13.2289 27.8373 13.2289 27.8366 13.4648Z" fill="white"/>
<defs>
<radialGradient id="paint0_angular" cx="0" cy="0" r="1" gradientUnits="userSpaceOnUse" gradientTransform="translate(13.5105 13.4639) rotate(65.9041) scale(13.2401 13.2975)">
<stop offset="0.5625" stop-color="white"/>
</radialGradient>
<linearGradient id="paint1_linear" x1="19.6191" y1="16.5047" x2="28.0211" y2="16.5047" gradientUnits="userSpaceOnUse">
<stop stop-color="white"/>
</linearGradient>
</defs>
</svg>
